<?xml version="1.0" standalone="no"?><!DOCTYPE svg PUBLIC "-//W3C//DTD SVG 1.1//EN" "http://www.w3.org/Graphics/SVG/1.1/DTD/svg11.dtd"><svg t="1522895255670" class="icon" style="" viewBox="0 0 1024 1024" version="1.1" xmlns="http://www.w3.org/2000/svg" p-id="6295" xmlns:xlink="http://www.w3.org/1999/xlink" width="32" height="32"><defs><style type="text/css"></style></defs><path d="M727.05 183.652H276.302c-57.95 0-104.927 47.125-104.927 105.26v452.173c0 58.135 46.978 105.262 104.927 105.262H727.05c57.947 0 104.93-47.127 104.93-105.262V288.913c-0.001-58.136-46.983-105.261-104.93-105.261z m58.816 553.137c0 34.465-27.936 62.4-62.4 62.4H279.888c-34.461 0-62.403-27.936-62.403-62.4V293.21c0-34.465 27.942-62.4 62.403-62.4h443.578c34.465 0 62.4 27.936 62.4 62.4v443.579z m-457.527-379.76h63.329v63.329h-63.329v-63.329z m126.65 0H675.01v63.329H454.989v-63.329z m-126.65 126.308h63.329v63.325h-63.329v-63.325z m126.65 0H675.01v63.325H454.989v-63.325z m-126.65 125.956h63.329v63.326h-63.329v-63.326z m126.65 0H675.01v63.326H454.989v-63.326z" p-id="6296" fill="#bababa"></path></svg>