<?xml version="1.0" standalone="no"?><!DOCTYPE svg PUBLIC "-//W3C//DTD SVG 1.1//EN" "http://www.w3.org/Graphics/SVG/1.1/DTD/svg11.dtd"><svg t="1522894433779" class="icon" style="" viewBox="0 0 1024 1024" version="1.1" xmlns="http://www.w3.org/2000/svg" p-id="3571" xmlns:xlink="http://www.w3.org/1999/xlink" width="32" height="32"><defs><style type="text/css"></style></defs><path d="M928 0l-704 0c-53.024 0-96 42.944-96 96l0 64-32 0c-53.024 0-96 42.944-96 96l0 640c0 70.688 57.312 128 128 128l768 0c70.688 0 128-57.312 128-128l0-800c0-53.056-43.008-96-96-96zM960 896c0 35.264-28.736 64-64 64l-768 0c-35.296 0-64-28.736-64-64l0-640c0-17.664 14.336-32 32-32l32 0 0 640c0 17.696 14.304 32 32 32s32-14.304 32-32l0-768c0-17.664 14.336-32 32-32l704 0c17.632 0 32 14.336 32 32l0 800zM623.936 416.16c-8.8 0-16-7.168-16-16s7.2-16 16-16l256 0c8.864 0 16 7.168 16 16s-7.136 16-16 16l-256 0zM623.936 320.16c-8.8 0-16-7.168-16-16s7.2-16 16-16l256 0c8.864 0 16 7.168 16 16s-7.136 16-16 16l-256 0zM623.936 224.16c-8.8 0-16-7.168-16-16s7.2-16 16-16l256 0c8.864 0 16 7.168 16 16s-7.136 16-16 16l-256 0zM528 864.128c8.832 0 16 7.2 16 16 0 8.864-7.2 16-16 16l-256 0c-8.832 0-16-7.136-16-16 0-8.8 7.168-16 16-16l256 0zM528 768.128c8.832 0 16 7.2 16 16 0 8.864-7.2 16-16 16l-256 0c-8.832 0-16-7.136-16-16 0-8.8 7.168-16 16-16l256 0zM528 672.128c8.832 0 16 7.2 16 16 0 8.864-7.2 16-16 16l-256 0c-8.832 0-16-7.136-16-16 0-8.8 7.168-16 16-16l256 0zM880 864.128c8.8 0 16 7.2 16 16 0 8.864-7.2 16-16 16l-256 0c-8.864 0-16-7.136-16-16 0-8.8 7.136-16 16-16l256 0zM880 768.128c8.8 0 16 7.2 16 16 0 8.864-7.2 16-16 16l-256 0c-8.864 0-16-7.136-16-16 0-8.8 7.136-16 16-16l256 0zM880 672.128c8.8 0 16 7.2 16 16 0 8.864-7.2 16-16 16l-256 0c-8.864 0-16-7.136-16-16 0-8.8 7.136-16 16-16l256 0zM880 480.128c8.8 0 16 7.168 16 16s-7.2 16-16 16l-608 0c-8.832 0-16-7.168-16-16s7.168-16 16-16l608 0zM880 576.128c8.8 0 16 7.2 16 16 0 8.864-7.2 16-16 16l-608 0c-8.832 0-16-7.136-16-16 0-8.8 7.168-16 16-16l608 0zM288 416l224 0c17.696 0 32-14.304 32-32l0-223.872c0-17.696-14.304-32-32-32l-224 0c-17.696 0-32 14.304-32 32l0 223.872c0 17.664 14.304 32 32 32zM320 192l160 0 0 160-160 0 0-160z" p-id="3572" fill="#bababa"></path></svg>